<svg width="300" height="200" viewBox="0 0 300 200" xmlns="http://www.w3.org/2000/svg">
  <!-- Gradient -->
  <defs>
    <linearGradient id="grad1" x1="0%" y1="0%" x2="100%" y2="100%">
      <stop offset="0%" style="stop-color:#d946ef;stop-opacity:1"></stop>
      <stop offset="100%" style="stop-color:#3b82f6;stop-opacity:1"></stop>
    </linearGradient>
  </defs>

  <!-- Music Note "M" -->
  <path d="M50 50 
           Q50 20 80 20 
           L150 80 
           L220 20 
           Q250 20 250 50 
           L250 130 
           Q250 160 220 160 
           Q190 160 190 130 
           L190 90 
           L110 90 
           L110 130 
           Q110 160 80 160 
           Q50 160 50 130 Z" fill="url(#grad1)"></path>

  <!-- Sound Bars -->
  <rect x="120" y="95" width="6" height="30" fill="#6d28d9"></rect>
  <rect x="135" y="85" width="6" height="40" fill="#7c3aed"></rect>
  <rect x="150" y="80" width="6" height="50" fill="#8b5cf6"></rect>
  <rect x="165" y="85" width="6" height="40" fill="#6366f1"></rect>
  <rect x="180" y="95" width="6" height="30" fill="#3b82f6"></rect>

  <!-- Text -->
  <text x="50%" y="190" text-anchor="middle" font-size="28" font-family="Arial, sans-serif" fill="#0f172a">
    mymusic
  </text>
</svg>